<svg width="120" height="120" fill="none" xmlns="http://www.w3.org/2000/svg"><path d="M63.871 81.29h-7.742a3.875 3.875 0 01-3.87-3.87 3.875 3.875 0 013.87-3.871h7.742a3.875 3.875 0 013.87 3.87h3.872c0-4.27-3.472-7.741-7.742-7.741h-1.936v-3.871h-3.87v3.87h-1.936c-4.27 0-7.742 3.473-7.742 7.742 0 4.27 3.472 7.743 7.742 7.743h7.742a3.875 3.875 0 013.87 3.87 3.875 3.875 0 01-3.87 3.871h-7.742a3.875 3.875 0 01-3.87-3.87h-3.872c0 4.27 3.472 7.741 7.742 7.741h1.936v3.871h3.87v-3.87h1.936c4.27 0 7.742-3.473 7.742-7.743 0-4.27-3.472-7.742-7.742-7.742z" fill="#323232" fill-opacity=".7"/><path d="M87.097 3.871c-10.843 0-21 5.412-27.107 14.266C54.05 9.53 44.13 3.871 32.903 3.871 14.76 3.871 0 18.631 0 36.774c0 17.203 13.275 31.342 30.118 32.762-1.92 4.175-3.021 8.8-3.021 13.69 0 18.143 14.76 32.903 32.903 32.903 6.873 0 13.477-2.123 19.097-6.141l-2.25-3.149c-4.96 3.546-10.785 5.419-16.847 5.419-16.008 0-29.032-13.024-29.032-29.032 0-16.008 13.024-29.032 29.032-29.032 16.008 0 29.032 13.023 29.032 29.032a29.012 29.012 0 01-6.962 18.83l2.944 2.514a32.9 32.9 0 007.89-21.344c0-4.883-1.098-9.503-3.014-13.674a32.656 32.656 0 0016.304-6.016l-2.251-3.149a28.8 28.8 0 01-16.097 5.39c-5.356-8.515-14.481-14.412-25.036-15.31a32.94 32.94 0 002.996-13.692c0-5.37-1.32-10.428-3.611-14.91C67.43 13.143 76.92 7.741 87.097 7.741c16.008 0 29.032 13.024 29.032 29.032a29.015 29.015 0 01-6.962 18.83l2.944 2.515A32.904 32.904 0 00120 36.774c0-18.143-14.76-32.903-32.903-32.903zM58.529 50.398c-11.11.494-20.787 6.502-26.369 15.372-15.664-.4-28.289-13.239-28.289-28.996 0-16.008 13.024-29.032 29.032-29.032 16.009 0 29.032 13.024 29.032 29.032 0 4.765-1.184 9.447-3.406 13.624z" fill="#323232" fill-opacity=".7"/><path d="M87.097 50.322a5.813 5.813 0 01-5.807-5.806V42.58h3.871v-3.87h-3.87v-3.872h3.87v-3.87h-3.87v-1.936a5.813 5.813 0 015.806-5.806 5.814 5.814 0 015.806 5.806h3.871c0-5.336-4.341-9.677-9.677-9.677-5.336 0-9.678 4.34-9.678 9.677v1.935h-3.87v3.871h3.87v3.871h-3.87v3.871h3.87v1.936c0 5.336 4.342 9.677 9.678 9.677 5.336 0 9.677-4.341 9.677-9.677h-3.87a5.814 5.814 0 01-5.807 5.806zM34.839 33.62l11.146-13.005-2.938-2.52-10.144 11.833L22.76 18.095l-2.938 2.52 11.147 13.004v5.09h-3.871v3.871h3.87v3.872h-3.87v3.87h3.87v1.936h3.872v-1.936h3.87v-3.87h-3.87V42.58h3.87v-3.87h-3.87v-5.09z" fill="#323232" fill-opacity=".7"/></svg>