<svg width="125" height="86" fill="none" xmlns="http://www.w3.org/2000/svg"><rect width="125" height="86" rx="5" fill="#CCE2F5"/><path d="M51.47 58.008h-6.24L43.886 61h-1.232l5.12-11.2h1.168l5.12 11.2h-1.248l-1.344-2.992zm-.432-.96l-2.688-6.016-2.688 6.016h5.376zm8.994-.432c.598.139 1.056.379 1.376.72.331.341.496.757.496 1.248 0 .49-.17.928-.512 1.312-.33.384-.784.683-1.36.896a5.702 5.702 0 01-1.904.304 6.383 6.383 0 01-1.792-.256 4.747 4.747 0 01-1.536-.784l.384-.848c.384.288.832.512 1.344.672.512.16 1.03.24 1.552.24.779 0 1.414-.144 1.904-.432.502-.299.752-.699.752-1.2 0-.448-.202-.795-.608-1.04-.405-.256-.96-.384-1.664-.384h-1.44v-.832H58.4c.63 0 1.136-.117 1.52-.352.384-.245.576-.57.576-.976 0-.448-.218-.8-.656-1.056-.426-.256-.986-.384-1.68-.384-.906 0-1.802.23-2.688.688l-.32-.88a6.667 6.667 0 013.12-.784c.64 0 1.216.096 1.728.288.523.181.928.443 1.216.784.299.341.448.736.448 1.184 0 .427-.149.805-.448 1.136-.288.33-.682.576-1.184.736zm4.451-4.032h1.136v6.688l5.616-6.688h1.008V61h-1.136v-6.688L65.507 61h-1.024v-8.416zm17.48 0V61h-1.04v-2.784h-2.96L76.01 61h-1.232l2.096-2.944c-.65-.181-1.152-.49-1.504-.928-.352-.437-.528-.992-.528-1.664 0-.939.32-1.653.96-2.144.64-.49 1.514-.736 2.624-.736h3.536zm-5.968 2.912c0 1.248.794 1.872 2.384 1.872h2.544v-3.776h-2.464c-1.643 0-2.464.635-2.464 1.904z" fill="#000"/><path d="M67.291 22.447a.655.655 0 001.31 0v-7.864h-1.31v7.864zm.655-9.175a3.277 3.277 0 100-6.553 3.277 3.277 0 000 6.553zm0-5.243a.655.655 0 010 1.311.657.657 0 00-.655.655.655.655 0 01-1.31 0 1.972 1.972 0 011.965-1.966z" fill="#fff"/><path d="M80.99 14.941a.657.657 0 00-.448-.51l-2.89-.917a6.94 6.94 0 00-1.888-.34l-4.325-.178c-.006 0-.02-.006-.026-.006-.414.482-.925.87-1.5 1.14v8.238a2.016 2.016 0 01-1.584 2.007 1.969 1.969 0 01-2.349-1.929V14.13a4.489 4.489 0 01-1.723-1.422l-3.205-.131a2.8 2.8 0 01-1.12-.301l-.295-.164a1.261 1.261 0 00-.78-.138l-3.14-.013a.66.66 0 00-.654.649l-.007.616c-.004.73-.6 1.32-1.33 1.317h-.619a.662.662 0 00-.092.003.262.262 0 00-.193.128c-.055.09-.117.176-.178.262a2.63 2.63 0 00-.281 2.189l.602 1.927a1.322 1.322 0 01-.819 1.631l-.249.04a.654.654 0 00-.446 1l1.855 2.866a1.324 1.324 0 01-1.205 1.875h-1.206c-.303 0-.596-.103-.833-.292l-1.854-1.478a.681.681 0 00-.38-.144l-2.146-.085a.656.656 0 00-.56 1.035c.187.265.452.465.757.573l.809.286c.532.184.888.688.884 1.251v1.07c0 .193.043.384.125.559l2.47 5.246a.66.66 0 00.734.36l2.373-.544a.654.654 0 00.334-1.087l-1.435-1.52a1.35 1.35 0 01-.321-.604l-.247-1.038c-.12-.453 0-.935.317-1.28a1.33 1.33 0 011.561-.264l6.573 3.224c.31.147.548.411.662.734l.446 2.307a.656.656 0 001.1.34l2.812-3.06c.307-.318.749-.47 1.186-.406.437.069.812.348 1.003.747l.78 1.658 1.042 1.101c.176.19.292.427.334.682l-.144 2.484a.655.655 0 00.262.563l.36.269a.658.658 0 001.042-.63 2.56 2.56 0 01-.032-.21v-1.238c0-.727.59-1.317 1.317-1.317h.524c.206.001.41.046.597.131l.268-.078a.654.654 0 00.347-1.01l-.268-.373a.672.672 0 00-.347-.25l-1.71-.504a1.31 1.31 0 01-.414-1.252 1.29 1.29 0 01.859-.976l2.169-.773-.433-3.755a3.962 3.962 0 01.446-2.333l1.094-2.032a2.638 2.638 0 00-.085-2.647l-.845-1.344a1.308 1.308 0 01-.04-1.33 1.332 1.332 0 011.167-.688h1.324c.769 0 1.468.447 1.79 1.145l.15.323.517.426a.655.655 0 001.041-.705l-.13-.41a1.319 1.319 0 01.354-1.631l.147-.115a.656.656 0 00.242-.634z" fill="#fff"/></svg>