<svg width="125" height="86" fill="none" xmlns="http://www.w3.org/2000/svg"><rect width="125" height="86" rx="5" fill="#CCE2F5"/><path d="M32.056 58.008h-6.24L24.472 61H23.24l5.12-11.2h1.168l5.12 11.2H33.4l-1.344-2.992zm-.432-.96l-2.688-6.016-2.688 6.016h5.376zm14.306-4.464V61h-1.04v-6.656l-3.408 5.632h-.512l-3.408-5.648V61h-1.04v-8.416h1.152l3.568 6.064 3.632-6.064h1.056zm10.593 4.56h-7.04c.064.875.4 1.584 1.008 2.128.608.533 1.376.8 2.304.8.523 0 1.002-.09 1.44-.272.437-.192.816-.47 1.136-.832l.64.736c-.373.448-.843.79-1.408 1.024a4.676 4.676 0 01-1.84.352c-.864 0-1.632-.181-2.304-.544A4.05 4.05 0 0148.907 59c-.373-.65-.56-1.387-.56-2.208 0-.821.176-1.557.528-2.208a3.955 3.955 0 011.472-1.52 4.153 4.153 0 012.112-.544c.778 0 1.477.181 2.096.544.618.363 1.104.87 1.456 1.52.352.64.528 1.376.528 2.208l-.016.352zm-4.064-3.648c-.81 0-1.494.261-2.048.784-.544.512-.854 1.184-.928 2.016h5.968c-.075-.832-.39-1.504-.944-2.016-.544-.523-1.227-.784-2.048-.784zm10.93-.976c.79 0 1.505.181 2.145.544.64.352 1.14.853 1.503 1.504.363.65.544 1.392.544 2.224 0 .843-.18 1.59-.544 2.24a3.888 3.888 0 01-1.504 1.52c-.629.352-1.344.528-2.144.528a4.092 4.092 0 01-1.856-.416 3.582 3.582 0 01-1.343-1.248v4.688h-1.136v-11.52h1.087v1.664a3.52 3.52 0 011.345-1.28c.565-.299 1.2-.448 1.904-.448zm-.08 7.552c.587 0 1.12-.133 1.6-.4.48-.277.854-.667 1.12-1.168.278-.501.416-1.072.416-1.712 0-.64-.138-1.205-.415-1.696a2.883 2.883 0 00-1.12-1.168 3.14 3.14 0 00-1.6-.416c-.598 0-1.137.139-1.617.416a3.035 3.035 0 00-1.12 1.168c-.266.49-.4 1.056-.4 1.696 0 .64.134 1.21.4 1.712.278.501.651.89 1.12 1.168.48.267 1.02.4 1.617.4zm6.713-7.488h1.136v6.688l5.616-6.688h1.008V61h-1.136v-6.688L71.046 61h-1.024v-8.416zm14.072 4.672h-1.92V61h-1.136v-8.416h1.136v3.696h1.936l2.96-3.696h1.232l-3.312 4.08L88.542 61h-1.344l-3.104-3.744zm8.98-4.736c1.1 0 1.942.277 2.529.832.586.544.88 1.355.88 2.432V61h-1.089v-1.312c-.256.437-.634.779-1.136 1.024-.49.245-1.077.368-1.76.368-.938 0-1.685-.224-2.24-.672-.554-.448-.831-1.04-.831-1.776 0-.715.255-1.29.767-1.728.523-.437 1.35-.656 2.48-.656h2.672v-.512c0-.725-.202-1.275-.608-1.648-.405-.384-.997-.576-1.775-.576-.534 0-1.046.09-1.536.272-.491.17-.913.41-1.265.72l-.512-.848c.427-.363.94-.64 1.536-.832a5.835 5.835 0 011.888-.304zm-.4 7.664c.64 0 1.19-.144 1.648-.432.46-.299.8-.725 1.025-1.28v-1.376h-2.64c-1.44 0-2.16.501-2.16 1.504 0 .49.186.88.56 1.168.373.277.895.416 1.567.416z" fill="#000"/><g clip-path="url(#clip0)"><path d="M64.13 35.328h-2.26c-.352 0-.682-.176-.877-.47l-1.946-2.919h-1.695c-.28 0-.548-.111-.746-.309l-.82-.82h-4.083c-.228 0-.45-.075-.632-.212l-4.52-3.389a1.054 1.054 0 01-.41-.694l-1.13-7.908a1.05 1.05 0 01.043-.483l2.26-6.778c.143-.43.546-.721 1-.721H66.39c.583 0 1.055.472 1.055 1.055v1.204h2.334c.484 0 .906.33 1.023.8l.93 3.719h1l5.339-5.34c.198-.197.466-.308.746-.308h1.13c.582 0 1.054.472 1.054 1.054v4.519c0 .164-.038.325-.111.472l-2.148 4.296v3.14c0 .28-.112.548-.31.746l-1.276 1.277a.64.64 0 00-.08.807l1.489 2.233c.278.419.223.976-.132 1.331l-2.26 2.26a1.055 1.055 0 01-1.491 0l-3.08-3.08h-3.43l-.274.546a1.054 1.054 0 01-.943.583h-.934l-.89 2.668c-.143.43-.546.721-1 .721z" fill="#fff"/></g><defs><clipPath id="clip0"><path fill="#fff" transform="translate(45 5)" d="M0 0h36v36H0z"/></clipPath></defs></svg>