<svg width="125" height="86" fill="none" xmlns="http://www.w3.org/2000/svg"><rect width="125" height="86" rx="5" fill="#CCE2F5"/><path d="M41.808 59.976V61h-7.92V49.8h7.68v1.024h-6.496v3.984h5.792v1.008h-5.792v4.16h6.736zm7.715-3.328c1.141.267 1.712.955 1.712 2.064 0 .736-.272 1.301-.816 1.696-.544.395-1.355.592-2.432.592h-3.824v-8.416h3.712c.96 0 1.712.187 2.256.56.544.373.816.907.816 1.6 0 .459-.128.853-.384 1.184-.245.32-.592.56-1.04.72zm-4.256-.32h2.528c.65 0 1.146-.123 1.488-.368.352-.245.528-.603.528-1.072 0-.47-.176-.821-.528-1.056-.342-.235-.837-.352-1.488-.352h-2.528v2.848zm2.672 3.776c.725 0 1.27-.117 1.632-.352.363-.235.544-.603.544-1.104 0-.501-.166-.87-.496-1.104-.33-.245-.853-.368-1.568-.368h-2.784v2.928h2.672zm10.294-7.584c.79 0 1.504.181 2.144.544.64.352 1.142.853 1.504 1.504.363.65.544 1.392.544 2.224 0 .843-.181 1.59-.544 2.24a3.888 3.888 0 01-1.504 1.52c-.63.352-1.344.528-2.144.528a4.092 4.092 0 01-1.856-.416 3.582 3.582 0 01-1.344-1.248v4.688h-1.136v-11.52h1.088v1.664c.342-.555.79-.981 1.344-1.28.566-.299 1.2-.448 1.904-.448zm-.08 7.552c.587 0 1.12-.133 1.6-.4.48-.277.854-.667 1.12-1.168.278-.501.416-1.072.416-1.712 0-.64-.138-1.205-.416-1.696a2.883 2.883 0 00-1.12-1.168 3.14 3.14 0 00-1.6-.416c-.597 0-1.136.139-1.616.416-.47.277-.842.667-1.12 1.168-.266.49-.4 1.056-.4 1.696 0 .64.134 1.21.4 1.712.278.501.65.89 1.12 1.168.48.267 1.019.4 1.616.4zm10.185 1.008c-.81 0-1.541-.181-2.192-.544A4.083 4.083 0 0164.61 59c-.373-.65-.56-1.387-.56-2.208 0-.821.187-1.557.56-2.208a3.968 3.968 0 011.536-1.52c.65-.363 1.381-.544 2.192-.544.81 0 1.541.181 2.192.544.65.363 1.157.87 1.52 1.52.373.65.56 1.387.56 2.208 0 .821-.187 1.557-.56 2.208a3.968 3.968 0 01-1.52 1.536c-.65.363-1.381.544-2.192.544zm0-1.008c.597 0 1.13-.133 1.6-.4.48-.277.853-.667 1.12-1.168.267-.501.4-1.072.4-1.712 0-.64-.133-1.21-.4-1.712a2.778 2.778 0 00-1.12-1.152 3.085 3.085 0 00-1.6-.416c-.597 0-1.136.139-1.616.416-.47.267-.843.65-1.12 1.152-.267.501-.4 1.072-.4 1.712 0 .64.133 1.21.4 1.712.277.501.65.89 1.12 1.168.48.267 1.019.4 1.616.4zm14.252-7.488V61h-1.136v-7.408h-5.28V61h-1.136v-8.416h7.552zm6.125-.064c1.099 0 1.941.277 2.528.832.587.544.88 1.355.88 2.432V61h-1.088v-1.312c-.256.437-.635.779-1.136 1.024-.49.245-1.077.368-1.76.368-.938 0-1.685-.224-2.24-.672-.555-.448-.832-1.04-.832-1.776 0-.715.256-1.29.768-1.728.523-.437 1.35-.656 2.48-.656h2.672v-.512c0-.725-.203-1.275-.608-1.648-.405-.384-.997-.576-1.776-.576-.533 0-1.045.09-1.536.272-.49.17-.912.41-1.264.72l-.512-.848c.427-.363.939-.64 1.536-.832a5.836 5.836 0 011.888-.304zm-.4 7.664c.64 0 1.19-.144 1.648-.432.459-.299.8-.725 1.024-1.28v-1.376h-2.64c-1.44 0-2.16.501-2.16 1.504 0 .49.187.88.56 1.168.374.277.896.416 1.568.416z" fill="#000"/><g clip-path="url(#clip0)" fill="#fff"><path d="M69.373 15.041a3.214 3.214 0 10-2.46-5.939 3.214 3.214 0 002.46 5.939zm-1.23-4.898a.643.643 0 010 1.286.645.645 0 00-.642.643.643.643 0 11-1.286 0 1.934 1.934 0 011.928-1.929zm12.433 12.381l-1.524-2.308a1.935 1.935 0 01.065-2.21l.707-.963a.643.643 0 00-.438-1.019l-.713-.089a1.105 1.105 0 00-.437.02l-4.532 1.028c-.476.103-.964.244-1.543.43l-2.09.708v6.08a1.988 1.988 0 01-1.54 1.975 1.933 1.933 0 01-2.316-1.89v-7.882l-5.776-1.071a.643.643 0 00-.47.095l-4.38 2.88-1.183 1.471a.74.74 0 00-.129.707.726.726 0 00.521.489c.33.09.632.261.879.498a.6.6 0 01.13.196l.244.566c.16.097.354.123.534.07a.633.633 0 00.437-.45l.399-1.214a3.261 3.261 0 011.723-1.935l1.022-.463a1.288 1.288 0 011.243.13c.356.262.561.682.55 1.124v.761c0 .243.136.465.353.574l1.76.89c.414.198.696.596.745 1.052a1.294 1.294 0 01-.814 1.319L60.307 25.5h-.013a.006.006 0 01-.006.007l-1.884.958a2.639 2.639 0 01-1.69.225l-1.267-.257a2.655 2.655 0 00-1.87.327l-2.09 1.273-3.497 2.032a.64.64 0 00-.276.79l.244.616a2.05 2.05 0 01.04 1.498 1.932 1.932 0 01-1.486 1.21l-.964.167a.626.626 0 00-.425.257.635.635 0 00-.115.476l.25 1.517a.653.653 0 00.643.546h2.064a.651.651 0 00.52-.263l1.241-1.685a2.72 2.72 0 01.907-.765l1.35-.68a2.547 2.547 0 012.14-.085l4.641 1.877.007-.16-.36-.604a1.255 1.255 0 01.27-1.62 1.362 1.362 0 011.62-.053l.186.123a9.225 9.225 0 012.199 2.102l.553.759a.644.644 0 00.662.244l4.075-.92a.657.657 0 00.495-.507l.122-.617a2.854 2.854 0 012.803-2.295 2.913 2.913 0 011.678.54l3.31 2.391a.912.912 0 00.72.161c.013 0 .026-.006.039-.006a.924.924 0 00.514-1.466l-.591-.746a1.308 1.308 0 01.141-1.755l2.925-2.584A2.56 2.56 0 0081 26.6v-2.662c0-.502-.147-.994-.424-1.414z"/><path d="M67.5 24.285a.643.643 0 001.286 0v-7.714h-1.285v7.714zm-20.64 1.014l-.421.672a.366.366 0 00.046.449h.001c.235.245.62.265.88.046l2.219-1.879.333-1.34a.643.643 0 00-.335-.73l-.371-.186a.63.63 0 01-.29-.29l-.642-1.292a.642.642 0 010-.57l.076-.156a.643.643 0 00-.286-.86l-.145-.073a.642.642 0 01-.32-.372l-.35-1.062a.643.643 0 00-.61-.442h-.358v3.368c0 .17.066.331.185.451l.271.276c.12.12.187.284.187.454v.654a.614.614 0 01-.065.274l-.485.797a.643.643 0 00-.093.334v.463l.456.27c.193.198.24.496.117.744z"/></g><defs><clipPath id="clip0"><path fill="#fff" transform="translate(45 5)" d="M0 0h36v36H0z"/></clipPath></defs></svg>