<svg width="125" height="86" fill="none" xmlns="http://www.w3.org/2000/svg"><rect width="125" height="86" rx="5" fill="#CCE2F5"/><path d="M39.056 58.008h-6.24L31.472 61H30.24l5.12-11.2h1.168l5.12 11.2H40.4l-1.344-2.992zm-.432-.96l-2.688-6.016-2.688 6.016h5.376zm14.98-.272c0 1.312-.432 2.341-1.296 3.088-.864.747-2.085 1.152-3.664 1.216v3.024H47.54v-3.008c-1.568-.064-2.784-.47-3.648-1.216-.853-.757-1.28-1.792-1.28-3.104 0-1.301.427-2.32 1.28-3.056.864-.736 2.08-1.136 3.648-1.2v-3.392h1.104v3.392c1.579.075 2.8.48 3.664 1.216.864.736 1.296 1.75 1.296 3.04zm-9.872 0c0 1.003.32 1.787.96 2.352.65.565 1.6.885 2.848.96v-6.56c-1.237.064-2.181.379-2.832.944-.65.555-.976 1.323-.976 2.304zm4.912 3.312c1.248-.064 2.198-.379 2.848-.944.662-.565.992-1.355.992-2.368 0-.992-.33-1.765-.992-2.32-.65-.555-1.6-.864-2.848-.928v6.56zm11.699-7.568c.789 0 1.504.181 2.144.544.64.352 1.141.853 1.504 1.504.362.65.544 1.392.544 2.224 0 .843-.182 1.59-.544 2.24a3.888 3.888 0 01-1.504 1.52c-.63.352-1.344.528-2.144.528a4.093 4.093 0 01-1.856-.416 3.582 3.582 0 01-1.344-1.248v4.688h-1.136v-11.52h1.088v1.664a3.51 3.51 0 011.344-1.28c.565-.299 1.2-.448 1.904-.448zm-.08 7.552c.586 0 1.12-.133 1.6-.4.48-.277.853-.667 1.12-1.168.277-.501.416-1.072.416-1.712 0-.64-.139-1.205-.416-1.696a2.882 2.882 0 00-1.12-1.168 3.14 3.14 0 00-1.6-.416c-.598 0-1.136.139-1.616.416a3.02 3.02 0 00-1.12 1.168c-.267.49-.4 1.056-.4 1.696 0 .64.133 1.21.4 1.712.277.501.65.89 1.12 1.168.48.267 1.018.4 1.616.4zm6.712-7.488h1.136v6.688l5.616-6.688h1.008V61H73.6v-6.688L68 61h-1.024v-8.416zm14.072 4.672h-1.92V61h-1.136v-8.416h1.136v3.696h1.936l2.96-3.696h1.232l-3.312 4.08L85.495 61h-1.344l-3.104-3.744zm8.98-4.736c1.1 0 1.942.277 2.529.832.586.544.88 1.355.88 2.432V61h-1.088v-1.312c-.256.437-.635.779-1.136 1.024-.491.245-1.078.368-1.76.368-.939 0-1.686-.224-2.24-.672-.555-.448-.832-1.04-.832-1.776 0-.715.256-1.29.768-1.728.522-.437 1.349-.656 2.48-.656H92.3v-.512c0-.725-.203-1.275-.608-1.648-.406-.384-.998-.576-1.776-.576-.534 0-1.046.09-1.536.272-.491.17-.912.41-1.264.72l-.512-.848c.426-.363.938-.64 1.536-.832a5.836 5.836 0 011.888-.304zm-.4 7.664c.64 0 1.19-.144 1.649-.432.458-.299.8-.725 1.024-1.28v-1.376h-2.64c-1.44 0-2.16.501-2.16 1.504 0 .49.186.88.56 1.168.373.277.896.416 1.568.416z" fill="#000"/><g clip-path="url(#clip0)"><path d="M74.203 17.078l-4.376-9.044-4.852-1.225-1.045 1.867-3.964-1.75L59.616 5h-6.051l-5.56 5.998v7.637l3.705 3.705 5.28-1.47 2.218 1.371 2.042 6.856-.876 4.084L63.292 41h3.326l3.712-4.048 1.108-3.501 2.8-2.8-.12-5.58 2.769-4.142 1.108-3.744v-.69l-3.792.583z" fill="#fff"/></g><defs><clipPath id="clip0"><path fill="#fff" transform="translate(45 5)" d="M0 0h36v36H0z"/></clipPath></defs></svg>